<svg xmlns="http://www.w3.org/2000/svg" version="1.1" xmlns:xlink="http://www.w3.org/1999/xlink" xmlns:svgjs="http://svgjs.com/svgjs" width="1920" height="1080" preserveAspectRatio="none" viewBox="0 0 1920 1080"><g mask="url(&quot;#SvgjsMask1100&quot;)" fill="none"><rect width="1920" height="1080" x="0" y="0" fill="#0e2a47"></rect><path d="M0,660.091C151.249,659.264,316.357,772.023,443.544,690.167C570.742,608.304,545.355,415.055,599.934,273.981C650.444,143.424,764.093,31.319,752.41,-108.18C740.561,-249.655,647.508,-375.847,537.947,-466.134C436.855,-549.442,294.709,-540.05,172.167,-586.347C36.25,-637.698,-79.46,-785.401,-221.071,-752.897C-361.747,-720.607,-401.013,-538.366,-498.915,-432.312C-601.051,-321.671,-792.851,-266.015,-808.752,-116.281C-824.759,34.447,-634.368,123.078,-572.594,261.495C-509.997,401.757,-572.732,607.282,-446.672,695.035C-321.567,782.124,-152.431,660.924,0,660.091" fill="#0b2036"></path><path d="M1920 1820.897C2054.183 1797.0819999999999 2137.809 1670.493 2256.848 1604.146 2386.846 1531.691 2567.9700000000003 1537.426 2650.636 1413.67 2734.524 1288.084 2724.846 1114.935 2679.948 970.736 2637.958 835.879 2507.506 757.797 2413.576 652.3140000000001 2321.186 548.56 2260.529 410.153 2132.575 356.03700000000003 1999.102 299.587 1840.983 299.00300000000004 1706.628 353.321 1577.191 405.65 1503.833 534.894 1417.932 644.9549999999999 1336.444 749.361 1245.6480000000001 849.529 1218.2150000000001 979.099 1189.766 1113.47 1215.011 1251.416 1262.2240000000002 1380.396 1312.325 1517.2649999999999 1375.3139999999999 1658.009 1496.416 1739.109 1618.37 1820.78 1775.484 1846.546 1920 1820.897" fill="#113458"></path></g><defs><mask id="SvgjsMask1100"><rect width="1920" height="1080" fill="#ffffff"></rect></mask></defs></svg>